#!OML:ASF E:\Steps\Project 1\Capture day 1\Session 2\Subject.ASF
:FULLY-SPECIFIED
:DEGREES
391
root 8.3142 16.3654 17.9481 193 80.8711 -189.978
lowerback -23.0984 -1.25704 -6.24787
upperback -4.93828 0.524045 -2.32421
thorax 7.42637 0.355783 1.20681
lowerneck -9.73375 -7.28636 4.01761
upperneck 0.4253 -10.0807 -0.0567959
head 1.5618 -4.98504 -1.0995
rclavicle 2.21645e-014 9.54166e-015
rhumerus -19.3034 -1.02536 -93.2173
rradius 19.56
rwrist 13.01
rhand -9.51583 -54.239
rfingers 7.12502
rthumb 16.4498 -83.5615
lclavicle 2.21645e-014 9.54166e-015
lhumerus -22.2353 -9.41801 88.3466
lradius 7.37317
lwrist -20.0453
lhand -23.1838 -14.5025
lfingers 7.12502
lthumb 3.26562 15.4522
rfemur -36.8937 14.2549 12.9443
rtibia 20.3386
rfoot -32.5817 -20.049
rtoes -47.7125
lfemur -36.6452 -14.7828 -13.1205
ltibia 21.4412
lfoot -26.5055 9.08597
ltoes -36.3115
392
root 8.2976 16.3669 17.9525 192.845 80.8098 -190.123
lowerback -23.0028 -1.27343 -6.23677
upperback -4.89506 0.490843 -2.33897
thorax 7.42671 0.337409 1.17442
lowerneck -10.3969 -7.18599 4.28405
upperneck 1.08415 -10.0092 -0.431472
head 1.86619 -4.94722 -1.31395
rclavicle 1.51076e-014 2.14687e-014
rhumerus -18.5713 0.460313 -93.6223
rradius 20.4363
rwrist 11.221
rhand -9.77288 -54.1406
rfingers 7.12502
rthumb 16.2023 -83.4835
lclavicle 1.51076e-014 2.14687e-014
lhumerus -21.595 -10.0987 88.661
lradius 8.15905
lwrist -19.4211
lhand -22.5231 -15.6293
lfingers 7.12502
lthumb 3.90366 14.3147
rfemur -36.9424 14.3259 12.8521
rtibia 20.3567
rfoot -32.8476 -19.8142
rtoes -46.8883
lfemur -36.7536 -15.6108 -12.7476
ltibia 21.5499
lfoot -27.1769 8.72762
ltoes -31.8791
393
root 8.28033 16.3659 17.9565 192.91 80.7264 -190.227
lowerback -23.1041 -1.32516 -6.19988
upperback -4.87659 0.425754 -2.3424
thorax 7.50431 0.304969 1.13084
lowerneck -11.083 -7.17855 3.94233
upperneck 1.87531 -10.0139 -0.235744
head 2.28131 -4.92954 -1.26144
rclavicle -1.59028e-015 1.27222e-014
rhumerus -17.8129 1.82531 -93.9414
rradius 21.4104
rwrist 9.48522
rhand -9.73165 -54.4689
rfingers 7.12502
rthumb 16.242 -83.8086
lclavicle -1.59028e-015 1.27222e-014
lhumerus -20.9553 -10.7619 88.8864
lradius 9.06695
lwrist -18.7981
lhand -24.7293 -14.272
lfingers 7.12502
lthumb 1.77304 15.7004
rfemur -37.2107 14.3601 12.686
rtibia 20.3963
rfoot -33.0035 -19.7087
rtoes -46.5845
lfemur -37.0675 -15.6332 -12.7683
ltibia 21.5476
lfoot -26.6307 10.5237
ltoes -38.6169
394
root 8.26338 16.3636 17.9618 193.438 80.7139 -189.893
lowerback -23.2546 -1.35154 -6.13359
upperback -4.8757 0.3879 -2.31553
thorax 7.58624 0.286549 1.11151
lowerneck -11.6968 -7.16292 3.55705
upperneck 2.60056 -9.99994 0.0518887
head 2.67574 -4.89954 -1.16502
rclavicle -2.5345e-015 5.1684e-014
rhumerus -17.0327 2.93662 -94.1546
rradius 22.351
rwrist 8.0316
rhand -9.64475 -55.0348
rfingers 7.12502
rthumb 16.3257 -84.3676
lclavicle -2.5345e-015 5.1684e-014
lhumerus -20.358 -11.4386 89.0831
lradius 10.1807
lwrist -18.1167
lhand -23.7917 -15.3096
lfingers 7.12502
lthumb 2.67853 14.6533
rfemur -37.5234 14.4244 12.6239
rtibia 20.4083
rfoot -32.897 -19.9276
rtoes -46.9669
lfemur -37.4297 -15.9798 -12.4106
ltibia 21.6862
lfoot -27.0477 10.452
ltoes -36.5253
395
root 8.24693 16.3587 17.967 194 80.7287 -189.449
lowerback -23.3313 -1.35396 -6.11431
upperback -4.87356 0.379353 -2.24385
thorax 7.62839 0.28078 1.17645
lowerneck -12.1491 -7.15561 3.06922
upperneck 3.1892 -9.97499 0.398083
head 3.00803 -4.86525 -1.01774
rclavicle -2.43014e-014 -2.14687e-014
rhumerus -16.3264 4.18666 -94.2434
rradius 23.3042
rwrist 6.33546
rhand -9.58335 -54.9971
rfingers 7.12502
rthumb 16.3848 -84.325
lclavicle -2.43014e-014 -2.14687e-014
lhumerus -19.9645 -14.7357 90.3565
lradius 11.2742
lwrist -14.8092
lhand -22.7753 -16.3411
lfingers 7.12502
lthumb 3.66013 13.6072
rfemur -37.7611 14.4945 12.6249
rtibia 20.4146
rfoot -32.4121 -20.5436
rtoes -48.0858
lfemur -37.6548 -16.0922 -12.1287
ltibia 21.7301
lfoot -27.3438 9.84664
ltoes -33.3582
396
root 8.23148 16.3552 17.9673 193.933 80.7095 -189.579
lowerback -23.3439 -1.29454 -6.08211
upperback -4.87832 0.454303 -2.27899
thorax 7.62577 0.318347 1.14171
lowerneck -12.4662 -7.19925 2.62492
upperneck 3.69005 -10.0181 0.767584
head 3.28673 -4.86483 -0.862376
rclavicle 3.73218e-014 3.97569e-015
rhumerus -15.6582 5.06493 -94.2836
rradius 24.185
rwrist 4.94287
rhand -9.42192 -54.7194
rfingers 7.12502
rthumb 16.5403 -84.0344
lclavicle 3.73218e-014 3.97569e-015
lhumerus -19.5911 -18.3131 91.5293
lradius 12.2965
lwrist -11.6202
lhand -22.4387 -17.0739
lfingers 7.12502
lthumb 3.98511 12.8685
rfemur -37.9897 14.639 12.4501
rtibia 20.5807
rfoot -32.3457 -20.9025
rtoes -48.6293
lfemur -37.6533 -15.0454 -12.5468
ltibia 21.4383
lfoot -26.6633 9.42098
ltoes -35.7724
397
root 8.21837 16.3529 17.9629 193.824 80.746 -189.801
lowerback -23.4158 -1.20843 -5.94586
upperback -4.94999 0.554729 -2.38971
thorax 7.58091 0.376195 0.973116
lowerneck -12.656 -7.22182 2.32824
upperneck 4.17522 -10.0498 1.09506
head 3.52898 -4.85919 -0.735871
rclavicle -3.32964e-015 -2.8625e-014
rhumerus -15.0743 5.56721 -94.3804
rradius 25.0428
rwrist 3.93599
rhand -9.20685 -54.788
rfingers 7.12502
rthumb 16.7473 -84.0857
lclavicle -3.32964e-015 -2.8625e-014
lhumerus -19.4398 -21.8319 92.4949
lradius 13.4908
lwrist -8.57337
lhand -22.4811 -17.4095
lfingers 7.12502
lthumb 3.94424 12.5337
rfemur -38.3358 14.8583 12.1976
rtibia 20.8971
rfoot -32.7858 -20.8989
rtoes -47.0801
lfemur -37.9299 -15.0095 -12.5808
ltibia 21.584
lfoot -26.5036 10.0283
ltoes -37.9996
398
root 8.20539 16.3555 17.9657 193.474 80.8277 -190.128
lowerback -23.3055 -1.23839 -6.00471
upperback -5.00697 0.517169 -2.36476
thorax 7.46186 0.361646 1.02316
lowerneck -12.7906 -7.15018 1.85665
upperneck 4.55953 -9.93427 1.55235
head 3.74622 -4.77902 -0.521051
rclavicle 1.35671e-014 -1.51076e-014
rhumerus -14.537 6.19414 -94.401
rradius 25.9337
rwrist 2.90177
rhand -8.94749 -54.6133
rfingers 7.12502
rthumb 16.997 -83.8897
lclavicle 1.35671e-014 -1.51076e-014
lhumerus -19.2672 -23.836 93.0752
lradius 14.7716
lwrist -6.85257
lhand -22.8658 -17.3491
lfingers 7.12502
lthumb 3.5727 12.6007
rfemur -38.423 14.9935 12.1514
rtibia 21.0617
rfoot -32.8571 -21.2326
rtoes -49.1419
lfemur -37.8217 -14.5322 -12.8356
ltibia 21.4399
lfoot -26.2372 10.1374
ltoes -39.7734
399
root 8.19482 16.3554 17.9691 193.199 80.8539 -190.37
lowerback -23.2361 -1.31157 -6.07656
upperback -5.00609 0.425989 -2.30992
thorax 7.43083 0.315925 1.09737
lowerneck -13.0679 -7.07555 1.33295
upperneck 4.90071 -9.81321 2.08647
head 3.98548 -4.69136 -0.27411
rclavicle 1.05853e-014 1.35174e-014
rhumerus -13.9331 7.01346 -94.4071
rradius 26.7506
rwrist 1.97751
rhand -9.0958 -54.3356
rfingers 7.12502
rthumb 16.8542 -83.6242
lclavicle 1.05853e-014 1.35174e-014
lhumerus -18.9662 -25.4966 93.4092
lradius 16.1084
lwrist -5.64821
lhand -23.0177 -17.6601
lfingers 7.12502
lthumb 3.42596 12.2921
rfemur -38.4189 14.9207 12.1592
rtibia 21.0665
rfoot -32.6609 -21.6706
rtoes -49.9568
lfemur -37.846 -14.6882 -12.8242
ltibia 21.5024
lfoot -26.2951 10.579
ltoes -41.1213
400
root 8.18241 16.3563 17.9734 193.081 80.826 -190.438
lowerback -23.14 -1.30478 -6.04786
upperback -4.98886 0.422538 -2.35393
thorax 7.40086 0.314644 1.03186
lowerneck -13.4418 -7.08975 0.955692
upperneck 5.41064 -9.83017 2.45339
head 4.28939 -4.67285 -0.12202
rclavicle -5.96354e-015 1.98785e-014
rhumerus -13.3135 7.66866 -94.4178
rradius 27.6132
rwrist 0.91459
rhand -9.29126 -54.4612
rfingers 7.12502
rthumb 16.6661 -83.7657
lclavicle -5.96354e-015 1.98785e-014
lhumerus -18.6219 -27.2879 93.5782
lradius 17.5137
lwrist -4.48662
lhand -22.8585 -18.196
lfingers 7.12502
lthumb 3.57972 11.7537
rfemur -38.3929 14.9026 12.1414
rtibia 21.0345
rfoot -32.4385 -21.8482
rtoes -50.3403
lfemur -37.8127 -14.802 -12.7933
ltibia 21.4478
lfoot -26.3625 10.5851
ltoes -41.2613
401
root 8.17119 16.3545 17.9751 192.931 80.8318 -190.649
lowerback -23.2233 -1.25242 -5.99386
upperback -4.96314 0.493062 -2.42056
thorax 7.4698 0.348165 0.948601
lowerneck -13.7636 -7.12444 0.527929
upperneck 6.2167 -9.87277 2.8883
head 4.19716 -4.65916 0.0609705
rclavicle -1.59028e-015 3.18055e-014
rhumerus -12.6613 8.07658 -94.3051
rradius 28.5462
rwrist -0.366179
rhand -9.25122 -54.5589
rfingers 7.12502
rthumb 16.7046 -83.8602
lclavicle -1.59028e-015 3.18055e-014
lhumerus -18.2135 -29.1419 93.7316
lradius 18.9215
lwrist -3.20222
lhand -22.8645 -18.6006
lfingers 7.12502
lthumb 3.57391 11.3492
rfemur -38.5318 14.9742 11.9973
rtibia 21.0395
rfoot -32.6873 -21.6122
rtoes -49.6979
lfemur -37.9504 -15.1169 -12.658
ltibia 21.5009
lfoot -26.5909 10.6654
ltoes -40.6436
402
root 8.16042 16.3531 17.9792 192.803 80.8552 -190.8
lowerback -23.3112 -1.22489 -5.98238
upperback -4.88492 0.534732 -2.43641
thorax 7.59979 0.361998 0.936299
lowerneck -14.187 -7.12384 -0.0417556
upperneck 6.59349 -9.85032 3.48184
head 4.4411 -4.60982 0.302768
rclavicle 1.83876e-015 1.27222e-014
rhumerus -11.9597 8.61268 -94.1387
rradius 29.3884
rwrist -1.34853
rhand -9.35738 -54.4797
rfingers 7.12502
rthumb 16.6024 -83.7895
lclavicle 1.83876e-015 1.27222e-014
lhumerus -17.7451 -31.2301 93.791
lradius 20.4524
lwrist -1.56433
lhand -23.0509 -18.7673
lfingers 7.12502
lthumb 3.39397 11.1854
rfemur -38.6189 15.0926 11.8917
rtibia 21.0207
rfoot -32.7037 -21.5781
rtoes -49.2807
lfemur -38.0445 -15.2075 -12.5997
ltibia 21.5374
lfoot -26.643 10.6298
ltoes -40.1955
403
root 8.14598 16.3572 17.9871 192.939 80.8291 -190.488
lowerback -23.0898 -1.18849 -5.95056
upperback -4.80636 0.549146 -2.43517
thorax 7.57075 0.364278 0.923071
lowerneck -14.583 -7.13398 -0.535195
upperneck 6.91268 -9.85558 4.11015
head 4.66225 -4.56926 0.545403
rclavicle 2.72335e-014 -2.38542e-014
rhumerus -11.3258 9.52004 -93.9447
rradius 30.156
rwrist -2.43528
rhand -9.53033 -54.5393
rfingers 7.12502
rthumb 16.4359 -83.863
lclavicle 2.72335e-014 -2.38542e-014
lhumerus -17.1159 -32.5814 93.6236
lradius 21.7654
lwrist -0.578087
lhand -23.1961 -18.61
lfingers 7.12502
lthumb 3.25371 11.345
rfemur -38.4388 15.2595 11.9744
rtibia 20.9396
rfoot -32.6196 -21.6869
rtoes -49.1595
lfemur -37.8812 -14.9744 -12.6578
ltibia 21.4574
lfoot -26.4241 10.5409
ltoes -40.7993
404
root 8.13329 16.3542 17.9854 193.119 80.7967 -190.321
lowerback -23.0425 -1.15683 -5.84398
upperback -4.82243 0.56111 -2.44601
thorax 7.52905 0.373466 0.854265
lowerneck -14.8015 -7.20664 -1.09449
upperneck 7.24524 -9.93765 4.76774
head 4.86686 -4.56787 0.807424
rclavicle -1.91827e-014 3.26007e-014
rhumerus -10.7994 10.6713 -93.6674
rradius 30.9099
rwrist -3.84312
rhand -9.6158 -54.5175
rfingers 7.12502
rthumb 16.3536 -83.848
lclavicle -1.91827e-014 3.26007e-014
lhumerus -16.4116 -32.88 93.379
lradius 22.7597
lwrist -0.580217
lhand -23.3207 -18.5859
lfingers 7.12502
lthumb 3.13337 11.3708
rfemur -38.5204 15.2076 11.9518
rtibia 20.9449
rfoot -32.3339 -21.9134
rtoes -49.787
lfemur -37.9373 -14.4702 -12.797
ltibia 21.4296
lfoot -26.4235 9.79995
ltoes -39.7504
